<svg xmlns="http://www.w3.org/2000/svg" viewBox="0 0 100 100"><path d="M53.048 34.951h-.161c-.806-.483-1.129-1.611-.644-2.417l4.031-5.972c.487-.804 1.776-1.45 2.744-1.289h1.132c.967.163 2.42.807 3.226 1.289l10.165 8.068c.646.646 1.937.646 2.582 0l.162-.161-3.227-3.546 1.615-1.457 2.902 3.392c.163-.646.163-1.292-.162-1.935C67.894 12.686 53.695 6.716 48.855 5.1c-.968-.324-2.099.158-2.582 1.133l-2.744 4.837c-.323.972 0 1.779.969 2.103.967.319 2.258.965 3.229 2.254.643 1.128 1.45 1.935 2.255 2.585.649.643.809 1.772.323 2.742l-4.999 7.905c-.646.807-1.455 1.128-1.776.965-.484-.322-1.29.163-1.774 1.135L13.193 79.972c-.483.97-1.45 2.259-2.098 2.905l-2.901 3.387c-.649.807-.971 2.098-.487 3.065 2.099 4.035 6.941 5.327 9.521 5.646.97.163 1.937-.483 2.259-1.448l1.455-3.716c.322-.965.967-2.417 1.45-3.224l31.305-49.212c.483-.967.16-1.94-.649-2.424zm38.565 15.01c-.967-.968-1.937-1.452-2.905-1.452-.162-.812-.484-1.455-.807-1.777-.805-.806-1.452-1.13-2.259-1.292-.161-.806-.484-1.292-.806-1.61-1.129-.968-2.099-1.453-3.228-1.292-1.937.163-3.226 2.259-4.68 4.515-.645.965-1.289 2.101-2.096 3.065-2.582 3.066-5.809 5.812-6.94 6.779-.161-.163-.484-.163-.646-.322-1.776-.646-3.066-.485-4.033.159-.646.482-.97 1.13-1.131 1.613-.484.163-1.13.322-1.452.646-.645.483-.966.965-1.13 1.618-.485 0-.968.161-1.452.483-.645.485-.807 1.128-.968 1.611-.644 0-1.13.163-1.614.485-.484.485-.807 1.128-.968 1.613-.645.161-1.13.322-1.453.643-.644.485-.967 1.133-1.128 1.62-.322.161-.807.319-1.129.483-1.13.965-1.13 2.417-1.13 2.578 0 .322.161.646.483.97a36.917 36.917 0 0 1-4.194 2.744c-1.129.644-2.26 1.131-3.388 1.613-2.582 1.128-4.681 1.935-5.326 3.874-.323.967 0 2.096.807 3.385.324.322.647.804 1.453.968 0 .811.323 1.618.807 2.425.323.482.805.965 1.776 1.128-.323.965 0 2.096.806 3.068.485.807 1.455 1.613 3.711 1.289.323 0 .806-.158 1.453-.321 3.551-1.135 8.715-4.518 12.264-7.751 0 .487.322.974.806 1.299.323 0 .806.161 1.293 0 .16-.163.483-.324.645-.483.483-.329.806-.816.968-1.62.161 0 .482 0 .644-.161.161 0 .484-.163.645-.322.487-.324.809-.967.97-1.774h.807c.323-.161.484-.161.807-.321.484-.483.809-.97.968-1.774.162 0 .485 0 .807-.166.323 0 .484-.163.646-.324.483-.322.806-.968 1.128-1.772.161.161.486.161.809 0 .16 0 .482-.163.644-.324.483-.485.806-.967.968-1.774h.97c.162-.161.322-.322.645-.483.967-.646 1.29-2.103 1.13-4.518.161 0 .322 0 .482-.163 4.198-1.289 13.555-10.168 15.167-15.171.647-1.936-.001-3.225-.646-3.707z"/></svg>