<svg version="1" xmlns="http://www.w3.org/2000/svg" width="154.667" height="154.667" viewBox="0 0 116 116"><path d="M39 5.2c-8.2 10.2-10.4 20.5-5.5 25.3C38.8 35.9 47 32 47 24c0-2.3-.8-5.5-1.7-7.3-1.8-3.4-2.3-12.1-.9-15C46.1-1.8 43.1.1 39 5.2zm31.9-3.7c-16.9 6-25.4 17.1-18.4 24 5.5 5.6 13.8 1.1 15-8.3.8-6.1 2.3-9.8 5.3-13.4 1.3-1.6 2.3-3 2.1-3.2-.2-.2-2 .2-4 .9zm8.4 13.7c-9.1 2-13.2 10-7.8 15.3 4.6 4.7 9.1 3.2 17.5-5.5 3.5-3.7 6.7-6 8.8-6.4 4.9-1.1 3.9-2.3-3.1-3.5-7.3-1.3-9.6-1.3-15.4.1zm-64.2 6.1c-1.4 7.8-1.4 8.4 0 14.6 2.1 9.9 9.9 14.2 15.4 8.6 2.7-2.6 3.2-6.3 1.4-9.8-.7-1.1-3.8-4.6-7-7.7-3.9-3.7-6.1-6.6-6.5-8.8-1-4.9-2.1-3.9-3.3 3.1z"/><path d="M47 32.1c-22.4 10.1-22.7 41.2-.5 51.5 5.6 2.7 15.6 3.1 21.2 1.1C78.7 80.6 86 70 86 58.1c0-11.5-6.1-20.9-16.5-25.7-6.6-3.1-16.1-3.2-22.5-.3zm17.3 6C72.4 40.3 79 49.2 79 58c0 14.6-15.4 25-28.8 19.4-13.7-5.7-17.5-22.8-7.4-33.6 5.7-6 13.2-8 21.5-5.7z"/><path d="M85.5 33.5C80.1 38.8 84 47 92 47c2.3 0 5.4-.7 6.9-1.5 4.2-2.1 10.5-2.9 14-1.7 5.1 1.8 3.7-.8-2.8-5.6-7.5-5.4-11.9-7.2-17.6-7.2-3.5 0-5.2.6-7 2.5zM0 41.6c0 .3 1.7 4.3 3.8 8.8C8.5 60.4 14.2 66 19.5 66c7.4 0 11.2-8.4 6.1-13.5-2.3-2.2-8.1-4.5-11.9-4.5-2.3 0-9-3.4-10.6-5.4C1.8 41 0 40.5 0 41.6zm90.5 11c-5.4 5.8-1 13.7 8.3 14.9 6.1.8 9.8 2.3 13.4 5.3 1.6 1.3 3.1 2.2 3.4 1.9.9-.9-6.6-16-9.4-19-5.8-6.2-11.8-7.3-15.7-3.1zM16 71c-5.1 2.1-9.6 2.5-13.4 1-4.6-1.7-2.9 1.2 3.3 5.8 7.6 5.5 11.9 7.2 18 7.2 4.2 0 5.3-.4 7-2.6 2.8-3.6 2.7-7.9-.4-10.9-3-3.1-8-3.2-14.5-.5zm69.5.5c-2.7 2.6-3.2 6.3-1.4 9.8.7 1.1 3.8 4.6 7 7.7 3.9 3.7 6.1 6.6 6.5 8.8 1 4.7 2 3.9 3.3-2.5 1.5-7.5 1.4-10.9-.4-17.1-2.6-8.7-9.8-11.9-15-6.7zm-51.6 13c-1.4.8-3.6 2.9-4.9 4.9-2.7 3.8-9.4 8.6-12.2 8.6-1 0-1.8.4-1.8.9 0 1 9.9 3.1 14.5 3.1 5.4 0 13.3-2.9 15.4-5.7 6-7.6-2.3-16.5-11-11.8zm37.6 1c-3.1 3-3.2 7.5-.5 14.5 2.2 5.7 2.6 12 .8 13.8-.6.6-.8 1.5-.4 1.9 1.1 1.1 8.1-7.2 11.1-13.1C84.2 99.2 85 96 85 92.4c0-4.5-.4-5.6-2.6-7.3-3.6-2.8-7.9-2.7-10.9.4zm-18.8 4.9c-2.5 2.3-3.8 5.8-5.2 13.9-.3 2-2 5.3-3.7 7.3-1.7 1.9-2.9 3.7-2.6 3.9.2.3 3.6-.8 7.4-2.3 4.8-1.9 8.5-4.3 12.2-7.8 4.4-4.3 5.2-5.6 5.2-8.8 0-7.5-7.9-11.2-13.3-6.2z"/></svg>