<svg version="1" xmlns="http://www.w3.org/2000/svg" width="172" height="130.667" viewBox="0 0 129 98"><path d="M12 40.1c-7.7 4.7-12 9-12 12 0 3.7.9 3.6 4.6-.2 8.8-9.2 20.4-12 20.4-4.8 0 1.8 2.6 3.3 4.1 2.3 1.9-1.1.8-5.6-2-8.5-3.7-3.7-9.8-4-15.1-.8z"/><path d="M52 40.1c-1.9 1.2-6.2 4.5-9.5 7.4C31 57.5 27.1 60 23.1 60c-3.7 0-6.1-1.4-6.1-3.5 0-.7 1-1.1 2.2-1.1 1.8.1 2.4-.5 2.6-2.6.6-4.9-6.2-5.6-8.7-.9-1.9 3.5-1.3 7.1 1.8 10.2 2.4 2.4 3.8 2.9 7.8 2.9 5.6 0 9-1.8 17.8-9.5C51.4 46 56 43 59.3 43c4 0 5.3.9 6.6 4.3 1.2 3 2.3 3.4 4 1.3 1.6-1.9 0-5.8-3.5-8.5-3.5-2.8-9.8-2.8-14.4 0z"/><path d="M93.5 39.5c-1.6.9-7 5-12 9.2-4.9 4.2-10.3 8.4-12 9.4-4.1 2.5-10.1 2.5-11.5 0-1.4-2.6-1.3-2.8 1.1-2.7 1.2.1 2.6-.7 3.3-1.7.9-1.5.7-2.2-1.2-3.7-2.8-2.3-5.2-1.5-7.8 2.5-1.3 2-1.4 3-.4 6 1.5 4.6 4.4 6.5 9.8 6.5 5.6 0 8.5-1.6 19.5-10.8C94.8 43.7 95.9 43 100.1 43c3.8 0 5.4 1.2 6.1 4.5.4 2.6 4.1 2.7 4.6.1 1.4-7-9.4-12-17.3-8.1z"/><path d="M119 51.1c-10 8.4-11.7 9.2-17 8.7-2.4-.2-3.5-1-4.1-2.6-.7-1.9-.6-2.2.9-1.8 2.7.9 4.6-.9 3.8-3.7-1.5-6.1-8.9-3-9.4 4-.3 3.5.1 4.4 3 6.8 2.8 2.4 3.9 2.7 8.4 2.3 4.2-.4 6.3-1.3 10.6-4.5 10.9-8.3 14-11.6 13.6-14.5-.3-2.7-.5-2.6-9.8 5.3z"/></svg>