<svg xmlns="http://www.w3.org/2000/svg" viewBox="0 0 164 164">
    <path fill-rule="evenodd" d="M125.155 58.917c-.165-2.102-1.493-13.824-2.44-16.191l.059.388c-.76-1.65-.823 6.302-.824 10.977-.881-3.894-4.226-12.479-5.282-15.422l.018.073a.72.72 0 0 0-.069-.099s-1.786 3.93-.714 13.806c-1.799-4.415-5.198-11.557-8.064-16.281l.139.309c-4.107-5.173.128 11.052.179 11.25-1.839-3.607-5.364-8.031-7.743-11.175.015.021.028.043.042.065-1.844-1.381.586 10.609.709 11.141-2.27-3.347-5.151-6.24-7.947-9.369l.082.111c-2.771-2.874 1.307 11.134 1.316 11.167-5.171-6.678-13.837-14.654-7.042.081l-5.405-4.52.329.344c-2.126-1.35-9.32-6.077-11.939-3.917 0 0-3.7-.51-4.287 1.021 0 0-3.496.638-3.445 2.246 0 0-3.573 1.148-3.496 2.424 0 0-3.317.638-4.287 1.838-1.773.032-7.053 1.369-7.579 5.308-3.369 2.345-5.593 15.724 1.276 17.097 5.278 1.055 8.609-.478 8.676-.459.354.104.546.269.65.404-2.144 2.088-17.005 9.627-23.742 4.453-.327-2.907-21.827-15.574-25.907-13.535C3.17 65.075-5.26 87.997 4.463 106.471 14.697 125.912 28.932 93.4 34.524 92.793c2.619-.284 7.608-1.13 12.896 1.275-5.909-1.115-9.955 5.809-12.105 4.977-.496-.198-.438.434 1.333.353-.909 1.279-1.657 2.579-2.034 3.822-1.642.351-3.23.751-.145.62-.192 1.076-.183 2.474-.063 3.678-3.418 1.085-5.079 1.468.073.617.177 1.276.518 1.857 1.733 2.993-1.685.628-2.344.725.303.275 1.504 1.334 3.375 2.528 4.019 2.952-1.707.799-2.494.987.229.297-.05.257-.487.67 2.464 3.582l.001.001 2.854 2.373.027.019c1.173.771 2.447 1.418 3.724 1.958-.445.244 3.21 1.174 4.133 1.435-.462.151-.129.025.039.011 8.584-.731 4.569 6.751 24.893-10.721-.127 1.021-6.89 8.038-6.89 8.038.053-.018.106-.038.162-.06-.53.472 5.074-2.226 9.646-6.913a568.567 568.567 0 0 1-3.684 5.059c2.497-.25 9.953-7.658 10.75-8.693 7.692 1.393 16.555 1.956 26.143 1.826-11.479 2.349-22.231-2.695-20.688 12.736.169 1.687 2.458 1.753 1.148 3.063 5.162 3.687 24.259-14.325 27.858-16.511 4.781-2.904 17.269-5.254 23.178-9.391.814-.57 23.271-19.317 15.541-17.378-.434.103-2.833.204-2.833.204 3.184-5.837 9.55-3.001-13.856-16.637-.74-.432-11.365-7.265-20.218-9.736z" clip-rule="evenodd"/>
</svg>
